#define close_width 13
#define close_height 13
static unsigned char close_bits[] = {
   0x00, 0x00, 0xf0, 0x01, 0xf8, 0x03, 0xfc, 0x07, 0x4e, 0x0e, 0x0e, 0x0e,
   0x1e, 0x0f, 0x0e, 0x0e, 0x4e, 0x0e, 0xfc, 0x07, 0xf8, 0x03, 0xf0, 0x01,
   0x00, 0x00 };
