#define desk_toggled_width 13
#define desk_toggled_height 13
static unsigned char desk_toggled_bits[] = {
   0x00, 0x00, 0x00, 0x00, 0x00, 0x00, 0xb8, 0x03, 0xb8, 0x03, 0x58, 0x03,
   0xe0, 0x00, 0x58, 0x03, 0xb8, 0x03, 0xb8, 0x03, 0x00, 0x00, 0x00, 0x00,
   0x00, 0x00 };
