#define desk_width 13
#define desk_height 13
static unsigned char desk_bits[] = {
   0x00, 0x00, 0x00, 0x00, 0x00, 0x00, 0xb8, 0x03, 0xb8, 0x03, 0x18, 0x03,
   0x00, 0x00, 0x18, 0x03, 0xb8, 0x03, 0xb8, 0x03, 0x00, 0x00, 0x00, 0x00,
   0x00, 0x00 };
