#define shade_width 13
#define shade_height 13
static unsigned char shade_bits[] = {
   0x00, 0x00, 0x00, 0x00, 0x60, 0x00, 0xf0, 0x00, 0xf8, 0x01, 0x6c, 0x03,
   0x64, 0x02, 0x60, 0x00, 0x60, 0x00, 0x60, 0x00, 0x00, 0x00, 0x00, 0x00,
   0x00, 0x00 };
